<?xml version="1.0" encoding="UTF-8" standalone="no"?>
<!-- Created with Inkscape (http://www.inkscape.org/) -->

<svg
   xmlns:dc="http://purl.org/dc/elements/1.1/"
   xmlns:cc="http://creativecommons.org/ns#"
   xmlns:rdf="http://www.w3.org/1999/02/22-rdf-syntax-ns#"
   xmlns:svg="http://www.w3.org/2000/svg"
   xmlns="http://www.w3.org/2000/svg"
   xmlns:sodipodi="http://sodipodi.sourceforge.net/DTD/sodipodi-0.dtd"
   xmlns:inkscape="http://www.inkscape.org/namespaces/inkscape"
   width="352.8425"
   height="224.58279"
   id="svg2"
   version="1.1"
   inkscape:version="0.48.5 r10040"
   sodipodi:docname="et.svg">
  <defs
     id="defs4" />
  <sodipodi:namedview
     id="base"
     pagecolor="#ffffff"
     bordercolor="#666666"
     borderopacity="1.0"
     inkscape:pageopacity="0.0"
     inkscape:pageshadow="2"
     inkscape:zoom="0.49497475"
     inkscape:cx="46.33093"
     inkscape:cy="-466.40382"
     inkscape:document-units="px"
     inkscape:current-layer="layer1"
     showgrid="false"
     inkscape:window-width="2560"
     inkscape:window-height="1340"
     inkscape:window-x="0"
     inkscape:window-y="49"
     inkscape:window-maximized="1"
     fit-margin-top="0"
     fit-margin-left="0"
     fit-margin-right="0"
     fit-margin-bottom="0" />
  <metadata
     id="metadata7">
    <rdf:RDF>
      <cc:Work
         rdf:about="">
        <dc:format>image/svg+xml</dc:format>
        <dc:type
           rdf:resource="http://purl.org/dc/dcmitype/StillImage" />
        <dc:title />
      </cc:Work>
    </rdf:RDF>
  </metadata>
  <g
     inkscape:label="Calque 1"
     inkscape:groupmode="layer"
     id="layer1"
     transform="translate(-110.96875,-215.78125)">
    <g
       id="g3775">
      <path
         d="m 339.41126,327.07266 c 0,61.36811 -51.10546,111.11679 -114.14724,111.11679 -63.04178,0 -114.14724,-49.74868 -114.14724,-111.11679 0,-61.3681 51.10546,-111.11678 114.14724,-111.11678 63.04178,0 114.14724,49.74868 114.14724,111.11678 z"
         sodipodi:ry="111.11678"
         sodipodi:rx="114.14724"
         sodipodi:cy="327.07266"
         sodipodi:cx="225.26402"
         id="path2985"
         style="fill:none;stroke:#67536c;stroke-width:0.322;stroke-miterlimit:4;stroke-opacity:1;stroke-dasharray:none"
         sodipodi:type="arc" />
      <path
         d="m 339.41126,327.07266 c 0,61.36811 -51.10546,111.11679 -114.14724,111.11679 -63.04178,0 -114.14724,-49.74868 -114.14724,-111.11679 0,-61.3681 51.10546,-111.11678 114.14724,-111.11678 63.04178,0 114.14724,49.74868 114.14724,111.11678 z"
         sodipodi:ry="111.11678"
         sodipodi:rx="114.14724"
         sodipodi:cy="327.07266"
         sodipodi:cx="225.26402"
         id="path2985-9"
         style="fill:none;stroke:#67536c;stroke-width:0.322;stroke-miterlimit:4;stroke-opacity:1;stroke-dasharray:none"
         sodipodi:type="arc"
         transform="translate(124.24876,2.0202959)" />
      <path
         inkscape:connector-curvature="0"
         id="path3005"
         d="m 272.87103,409.26774 c -24.25279,-22.11971 -35.57081,-47.67206 -35.57081,-80.30713 0,-31.87042 11.09898,-57.48118 34.32638,-79.20769 16.46608,-15.40209 16.56025,-15.41003 30.43452,-2.56491 20.59,19.06271 33.10343,43.61336 35.839,70.31414 3.0005,29.28658 -9.53321,63.70057 -30.8369,84.66931 -12.12704,11.93637 -18.84907,17.52645 -21.21034,17.63863 -0.74383,0.0353 -6.58567,-4.70872 -12.98185,-10.54235 z"
         style="fill:#808080;fill-opacity:1;stroke:#67536c;stroke-width:0.65053821;stroke-miterlimit:4;stroke-opacity:1;stroke-dasharray:none" />
    </g>
  </g>
</svg>
