<?xml version="1.0" encoding="UTF-8" standalone="no"?>
<!-- Created with Inkscape (http://www.inkscape.org/) -->

<svg
   xmlns:dc="http://purl.org/dc/elements/1.1/"
   xmlns:cc="http://creativecommons.org/ns#"
   xmlns:rdf="http://www.w3.org/1999/02/22-rdf-syntax-ns#"
   xmlns:svg="http://www.w3.org/2000/svg"
   xmlns="http://www.w3.org/2000/svg"
   xmlns:sodipodi="http://sodipodi.sourceforge.net/DTD/sodipodi-0.dtd"
   xmlns:inkscape="http://www.inkscape.org/namespaces/inkscape"
   width="353.04251"
   height="224.78279"
   id="svg2"
   version="1.1"
   inkscape:version="0.48.5 r10040"
   sodipodi:docname="ou.svg">
  <defs
     id="defs4" />
  <sodipodi:namedview
     id="base"
     pagecolor="#ffffff"
     bordercolor="#666666"
     borderopacity="1.0"
     inkscape:pageopacity="0.0"
     inkscape:pageshadow="2"
     inkscape:zoom="1.4"
     inkscape:cx="157.56587"
     inkscape:cy="43.812436"
     inkscape:document-units="px"
     inkscape:current-layer="layer1"
     showgrid="false"
     inkscape:window-width="2560"
     inkscape:window-height="1340"
     inkscape:window-x="0"
     inkscape:window-y="49"
     inkscape:window-maximized="1"
     fit-margin-top="0.1"
     fit-margin-left="0.1"
     fit-margin-right="0.1"
     fit-margin-bottom="0.1" />
  <metadata
     id="metadata7">
    <rdf:RDF>
      <cc:Work
         rdf:about="">
        <dc:format>image/svg+xml</dc:format>
        <dc:type
           rdf:resource="http://purl.org/dc/dcmitype/StillImage" />
        <dc:title></dc:title>
      </cc:Work>
    </rdf:RDF>
  </metadata>
  <g
     inkscape:label="Calque 1"
     inkscape:groupmode="layer"
     id="layer1"
     transform="translate(-110.86875,-215.68125)">
    <g
       id="g3775">
      <path
         d="m 339.41126,327.07266 c 0,61.36811 -51.10546,111.11679 -114.14724,111.11679 -63.04178,0 -114.14724,-49.74868 -114.14724,-111.11679 0,-61.3681 51.10546,-111.11678 114.14724,-111.11678 63.04178,0 114.14724,49.74868 114.14724,111.11678 z"
         sodipodi:ry="111.11678"
         sodipodi:rx="114.14724"
         sodipodi:cy="327.07266"
         sodipodi:cx="225.26402"
         id="path2985"
         style="fill:none;stroke:#67536c;stroke-width:0.322;stroke-miterlimit:4;stroke-opacity:1;stroke-dasharray:none"
         sodipodi:type="arc" />
      <path
         d="m 339.41126,327.07266 c 0,61.36811 -51.10546,111.11679 -114.14724,111.11679 -63.04178,0 -114.14724,-49.74868 -114.14724,-111.11679 0,-61.3681 51.10546,-111.11678 114.14724,-111.11678 63.04178,0 114.14724,49.74868 114.14724,111.11678 z"
         sodipodi:ry="111.11678"
         sodipodi:rx="114.14724"
         sodipodi:cy="327.07266"
         sodipodi:cx="225.26402"
         id="path2985-9"
         style="fill:none;stroke:#67536c;stroke-width:0.322;stroke-miterlimit:4;stroke-opacity:1;stroke-dasharray:none"
         sodipodi:type="arc"
         transform="translate(124.24876,2.0202959)" />
      <path
         inkscape:connector-curvature="0"
         id="path3005"
         d="m 272.87103,409.26774 c -24.25279,-22.11971 -35.57081,-47.67206 -35.57081,-80.30713 0,-31.87042 11.09898,-57.48118 34.32638,-79.20769 16.46608,-15.40209 16.56025,-15.41003 30.43452,-2.56491 20.59,19.06271 33.10343,43.61336 35.839,70.31414 3.0005,29.28658 -9.53321,63.70057 -30.8369,84.66931 -12.12704,11.93637 -18.84907,17.52645 -21.21034,17.63863 -0.74383,0.0353 -6.58567,-4.70872 -12.98185,-10.54235 z"
         style="fill:#808080;fill-opacity:1;stroke:#67536c;stroke-width:0.65053821;stroke-miterlimit:4;stroke-opacity:1;stroke-dasharray:none" />
    </g>
    <path
       style="fill:#b3b3b3;fill-opacity:1;stroke:#67536c;stroke-width:0.23;stroke-miterlimit:4;stroke-opacity:1;stroke-dasharray:none"
       d="m 205.26767,435.90762 c -28.02198,-4.8833 -54.60391,-21.02794 -71.35484,-43.33763 -15.51908,-20.66904 -22.98922,-44.32003 -21.94829,-69.48981 1.04347,-25.23128 9.41144,-46.77099 25.72267,-66.21186 21.43072,-25.54265 53.3954,-40.21671 87.60455,-40.21671 20.51219,0 39.64931,4.98532 56.88216,14.81809 l 5.81073,3.31551 -6.52502,4.65391 c -8.06069,5.74922 -20.14838,17.78984 -25.67624,25.57629 -13.67136,19.25721 -20.56516,40.75445 -20.56739,64.1362 -0.004,35.35261 16.22532,67.21377 45.29118,88.9185 4.7127,3.51917 4.98602,2.98142 -3.78685,7.4505 -10.10162,5.14597 -21.36741,8.70241 -34.28571,10.82347 -8.71806,1.43142 -27.72954,1.20817 -37.16695,-0.43646 l 0,0 z"
       id="path3799"
       inkscape:connector-curvature="0" />
    <path
       style="fill:#b3b3b3;fill-opacity:1;stroke:#67536c;stroke-width:0.23;stroke-miterlimit:4;stroke-opacity:1;stroke-dasharray:none"
       d="m 332.25017,438.36988 c -13.79306,-2.15316 -26.88059,-6.61167 -38.81484,-13.22301 -5.70226,-3.15895 -6.67857,-3.94045 -5.68134,-4.54771 8.13843,-4.95588 19.11554,-14.60825 25.97465,-22.83999 17.33197,-20.80039 25.85902,-44.15349 25.83349,-70.75042 -0.0227,-23.64895 -6.63091,-44.15595 -20.59076,-63.89845 -5.59415,-7.91144 -15.81008,-18.42603 -23.2445,-23.92404 -4.20368,-3.10876 -5.35284,-4.30106 -4.62203,-4.79552 3.62665,-2.45377 14.99665,-7.58348 21.99546,-9.9235 27.78289,-9.2891 61.3086,-7.13968 86.83432,5.56715 40.69218,20.25678 65.19993,60.65671 62.94383,103.76008 -1.36583,26.0947 -10.4374,48.21831 -27.82414,67.85714 -14.50614,16.38511 -35.67976,29.17353 -57.26255,34.58539 -12.94246,3.2453 -32.53679,4.16298 -45.54159,2.13288 l 0,0 z"
       id="path3801"
       inkscape:connector-curvature="0" />
  </g>
</svg>
